<svg width="394" height="444" viewBox="0 0 394 444" fill="none" xmlns="http://www.w3.org/2000/svg">
<g clip-path="url(#clip0_4_2)">
<path d="M183 5.79423C191.354 0.971141 201.646 0.971143 210 5.79423L377.423 102.456C385.777 107.279 390.923 116.192 390.923 125.838V319.162C390.923 328.808 385.777 337.721 377.423 342.544L210 439.206C201.646 444.029 191.354 444.029 183 439.206L15.5773 342.544C7.22347 337.721 2.0773 328.808 2.0773 319.162V125.838C2.0773 116.192 7.22347 107.279 15.5773 102.456L183 5.79423Z" fill="url(#paint0_linear_4_2)"/>
<path d="M123.173 332L160.722 105.818H247.308C263.653 105.818 276.832 108.395 286.845 113.549C296.858 118.629 303.816 125.587 307.718 134.422C311.694 143.257 312.725 153.271 310.811 164.462C309.265 173.592 306.172 181.433 301.534 187.986C296.969 194.465 291.373 199.766 284.747 203.889C278.12 207.939 271.015 210.847 263.432 212.614L262.99 214.823C270.942 215.191 278.231 217.621 284.857 222.112C291.484 226.603 296.49 232.935 299.877 241.108C303.264 249.207 304.037 258.962 302.196 270.374C300.208 282.081 295.607 292.61 288.391 301.96C281.176 311.237 271.384 318.563 259.014 323.938C246.719 329.313 231.956 332 214.728 332H123.173ZM169.889 297.763H213.955C228.754 297.763 239.945 294.929 247.528 289.26C255.112 283.517 259.64 276.154 261.113 267.172C262.217 260.471 261.554 254.434 259.125 249.059C256.695 243.611 252.682 239.341 247.087 236.248C241.491 233.082 234.496 231.499 226.103 231.499H180.822L169.889 297.763ZM185.903 202.012H226.434C233.502 202.012 240.055 200.723 246.093 198.146C252.204 195.496 257.284 191.778 261.333 186.992C265.457 182.132 267.997 176.39 268.954 169.763C270.5 161.002 268.659 153.786 263.432 148.117C258.204 142.448 249.59 139.613 237.589 139.613H196.063L185.903 202.012Z" fill="white"/>
<path d="M131 105.5H194.5L155 332H90L141 220H99L131 105.5Z" fill="white"/>
</g>
<defs>
<linearGradient id="paint0_linear_4_2" x1="8.5" y1="115" x2="384.5" y2="335" gradientUnits="userSpaceOnUse">
<stop stop-color="#85C4FF"/>
<stop offset="1" stop-color="#0084FF"/>
</linearGradient>
<clipPath id="clip0_4_2">
<rect width="394" height="444" fill="white"/>
</clipPath>
</defs>
</svg>