<svg width="2080" height="357" viewBox="0 0 2080 357" fill="none" xmlns="http://www.w3.org/2000/svg">
<mask id="path-1-outside-1_5_51" maskUnits="userSpaceOnUse" x="20" y="24.9215" width="868" height="322" fill="black">
<rect fill="white" x="20" y="24.9215" width="868" height="322"/>
<path d="M42 265.103C37.5817 265.103 34 261.522 34 257.103V46.9215C34 42.5032 37.5817 38.9215 42 38.9215H124.561C141.201 38.9215 155.079 41.388 166.197 46.321C177.315 51.254 185.671 58.1013 191.267 66.8629C196.863 75.5509 199.661 85.5642 199.661 96.9027C199.661 105.738 197.893 113.506 194.359 120.206C190.825 126.832 185.966 132.28 179.781 136.551C173.925 140.573 167.257 143.479 159.777 145.269C159.206 145.406 158.798 145.914 158.798 146.502V146.502C158.798 147.175 159.328 147.726 160 147.77C168.163 148.305 175.824 150.713 182.984 154.994C190.568 159.486 196.715 165.781 201.428 173.88C206.14 181.905 208.496 191.476 208.496 202.594C208.496 214.595 205.514 225.308 199.55 234.732C193.66 244.083 184.935 251.482 173.376 256.931C161.816 262.379 147.569 265.103 130.635 265.103H42ZM81.8207 218.007C81.8207 222.426 85.4024 226.007 89.8207 226.007H120.806C134.133 226.007 143.851 223.467 149.962 218.387C156.073 213.233 159.129 206.386 159.129 197.845C159.129 191.587 157.62 186.065 154.601 181.279C151.582 176.493 147.275 172.738 141.679 170.014C136.157 167.29 129.568 165.928 121.911 165.928H89.8207C85.4024 165.928 81.8207 169.51 81.8207 173.928V218.007ZM81.8207 125.569C81.8207 129.987 85.4024 133.569 89.8207 133.569H117.272C123.825 133.569 129.641 132.428 134.722 130.145C139.875 127.789 143.925 124.476 146.87 120.206C149.889 115.935 151.398 110.818 151.398 104.854C151.398 96.6818 148.49 90.0922 142.673 85.0856C136.93 80.0789 128.758 77.5756 118.156 77.5756H89.8207C85.4024 77.5756 81.8207 81.1573 81.8207 85.5756V125.569Z"/>
<path d="M370.512 167.032V257.103C370.512 261.522 366.93 265.103 362.512 265.103H331.464C327.046 265.103 323.464 261.522 323.464 257.103V103.467C323.464 99.0487 327.046 95.467 331.464 95.467H360.303C364.721 95.467 368.303 99.0487 368.303 103.467V124.22C368.303 124.869 368.83 125.396 369.48 125.396V125.396C369.968 125.396 370.405 125.094 370.585 124.64C374.371 115.131 380.568 107.578 389.176 101.983C398.011 96.1664 408.724 93.2582 421.314 93.2582C433.095 93.2582 443.366 95.8351 452.127 100.989C460.889 106.143 467.699 113.506 472.559 123.077C477.418 132.575 479.848 143.913 479.848 157.093V257.103C479.848 261.522 476.266 265.103 471.848 265.103H440.8C436.382 265.103 432.8 261.522 432.8 257.103V165.486C432.874 155.105 430.223 147.006 424.848 141.189C419.474 135.299 412.074 132.354 402.65 132.354C396.318 132.354 390.722 133.716 385.863 136.44C381.077 139.165 377.322 143.14 374.598 148.368C371.947 153.522 370.585 159.743 370.512 167.032Z"/>
<path d="M593.353 332.251C578.112 332.251 565.043 330.153 554.146 325.956C543.323 321.833 534.709 316.2 528.303 309.059C523.943 304.197 520.623 298.926 518.344 293.246C516.607 288.917 519.773 284.451 524.396 283.83L553.11 279.967C556.765 279.475 560.199 281.624 562.315 284.645C563.273 286.015 564.379 287.342 565.632 288.627C568.504 291.572 572.295 293.928 577.008 295.695C581.793 297.536 587.61 298.456 594.457 298.456C604.691 298.456 613.122 295.953 619.748 290.946C626.448 286.013 629.798 277.73 629.798 266.097V236.265C629.798 235.602 629.26 235.064 628.596 235.064V235.064C628.119 235.064 627.688 235.347 627.488 235.78C625.431 240.228 622.447 244.443 618.533 248.427C614.41 252.624 609.109 256.047 602.63 258.698C596.151 261.348 588.42 262.674 579.437 262.674C566.7 262.674 555.104 259.729 544.649 253.838C534.267 247.875 525.984 238.782 519.799 226.56C513.688 214.264 510.633 198.729 510.633 179.954C510.633 160.737 513.762 144.687 520.02 131.802C526.279 118.917 534.598 109.272 544.98 102.866C555.435 96.4609 566.884 93.2582 579.327 93.2582C588.825 93.2582 596.776 94.878 603.182 98.1175C609.587 101.283 614.741 105.259 618.644 110.045C622.44 114.544 625.397 118.976 627.515 123.341C627.698 123.718 628.078 123.961 628.497 123.961V123.961C629.094 123.961 629.577 123.477 629.577 122.881V103.467C629.577 99.0487 633.159 95.467 637.577 95.467H668.293C672.712 95.467 676.293 99.0487 676.293 103.467V266.76C676.293 281.191 672.759 293.266 665.691 302.984C658.623 312.703 648.831 319.992 636.314 324.852C623.871 329.785 609.551 332.251 593.353 332.251ZM594.347 227.333C601.93 227.333 608.336 225.455 613.563 221.7C618.864 217.872 622.914 212.423 625.712 205.355C628.583 198.213 630.019 189.673 630.019 179.733C630.019 169.793 628.62 161.179 625.822 153.89C623.024 146.527 618.975 140.821 613.674 136.772C608.373 132.722 601.93 130.697 594.347 130.697C586.616 130.697 580.1 132.796 574.799 136.993C569.498 141.116 565.485 146.859 562.761 154.221C560.037 161.584 558.674 170.088 558.674 179.733C558.674 189.525 560.037 197.992 562.761 205.134C565.559 212.202 569.571 217.688 574.799 221.59C580.1 225.418 586.616 227.333 594.347 227.333Z"/>
<path d="M790.378 268.417C773.223 268.417 758.387 264.772 745.871 257.483C733.428 250.12 723.82 239.886 717.046 226.781C710.272 213.601 706.885 198.324 706.885 180.948C706.885 163.425 710.272 148.11 717.046 135.005C723.82 121.825 733.428 111.591 745.871 104.302C758.387 96.9395 773.223 93.2582 790.378 93.2582C807.533 93.2582 822.332 96.9395 834.775 104.302C847.292 111.591 856.937 121.825 863.711 135.005C870.484 148.11 873.871 163.425 873.871 180.948C873.871 198.324 870.484 213.601 863.711 226.781C856.937 239.886 847.292 250.12 834.775 257.483C822.332 264.772 807.533 268.417 790.378 268.417ZM790.599 231.971C798.404 231.971 804.92 229.762 810.147 225.345C815.375 220.854 819.314 214.743 821.964 207.012C824.688 199.281 826.051 190.482 826.051 180.616C826.051 170.75 824.688 161.952 821.964 154.221C819.314 146.49 815.375 140.379 810.147 135.888C804.92 131.397 798.404 129.151 790.599 129.151C782.721 129.151 776.095 131.397 770.72 135.888C765.419 140.379 761.406 146.49 758.682 154.221C756.031 161.952 754.706 170.75 754.706 180.616C754.706 190.482 756.031 199.281 758.682 207.012C761.406 214.743 765.419 220.854 770.72 225.345C776.095 229.762 782.721 231.971 790.599 231.971Z"/>
</mask>
<path d="M42 265.103C37.5817 265.103 34 261.522 34 257.103V46.9215C34 42.5032 37.5817 38.9215 42 38.9215H124.561C141.201 38.9215 155.079 41.388 166.197 46.321C177.315 51.254 185.671 58.1013 191.267 66.8629C196.863 75.5509 199.661 85.5642 199.661 96.9027C199.661 105.738 197.893 113.506 194.359 120.206C190.825 126.832 185.966 132.28 179.781 136.551C173.925 140.573 167.257 143.479 159.777 145.269C159.206 145.406 158.798 145.914 158.798 146.502V146.502C158.798 147.175 159.328 147.726 160 147.77C168.163 148.305 175.824 150.713 182.984 154.994C190.568 159.486 196.715 165.781 201.428 173.88C206.14 181.905 208.496 191.476 208.496 202.594C208.496 214.595 205.514 225.308 199.55 234.732C193.66 244.083 184.935 251.482 173.376 256.931C161.816 262.379 147.569 265.103 130.635 265.103H42ZM81.8207 218.007C81.8207 222.426 85.4024 226.007 89.8207 226.007H120.806C134.133 226.007 143.851 223.467 149.962 218.387C156.073 213.233 159.129 206.386 159.129 197.845C159.129 191.587 157.62 186.065 154.601 181.279C151.582 176.493 147.275 172.738 141.679 170.014C136.157 167.29 129.568 165.928 121.911 165.928H89.8207C85.4024 165.928 81.8207 169.51 81.8207 173.928V218.007ZM81.8207 125.569C81.8207 129.987 85.4024 133.569 89.8207 133.569H117.272C123.825 133.569 129.641 132.428 134.722 130.145C139.875 127.789 143.925 124.476 146.87 120.206C149.889 115.935 151.398 110.818 151.398 104.854C151.398 96.6818 148.49 90.0922 142.673 85.0856C136.93 80.0789 128.758 77.5756 118.156 77.5756H89.8207C85.4024 77.5756 81.8207 81.1573 81.8207 85.5756V125.569Z" fill="white"/>
<path d="M370.512 167.032V257.103C370.512 261.522 366.93 265.103 362.512 265.103H331.464C327.046 265.103 323.464 261.522 323.464 257.103V103.467C323.464 99.0487 327.046 95.467 331.464 95.467H360.303C364.721 95.467 368.303 99.0487 368.303 103.467V124.22C368.303 124.869 368.83 125.396 369.48 125.396V125.396C369.968 125.396 370.405 125.094 370.585 124.64C374.371 115.131 380.568 107.578 389.176 101.983C398.011 96.1664 408.724 93.2582 421.314 93.2582C433.095 93.2582 443.366 95.8351 452.127 100.989C460.889 106.143 467.699 113.506 472.559 123.077C477.418 132.575 479.848 143.913 479.848 157.093V257.103C479.848 261.522 476.266 265.103 471.848 265.103H440.8C436.382 265.103 432.8 261.522 432.8 257.103V165.486C432.874 155.105 430.223 147.006 424.848 141.189C419.474 135.299 412.074 132.354 402.65 132.354C396.318 132.354 390.722 133.716 385.863 136.44C381.077 139.165 377.322 143.14 374.598 148.368C371.947 153.522 370.585 159.743 370.512 167.032Z" fill="white"/>
<path d="M593.353 332.251C578.112 332.251 565.043 330.153 554.146 325.956C543.323 321.833 534.709 316.2 528.303 309.059C523.943 304.197 520.623 298.926 518.344 293.246C516.607 288.917 519.773 284.451 524.396 283.83L553.11 279.967C556.765 279.475 560.199 281.624 562.315 284.645C563.273 286.015 564.379 287.342 565.632 288.627C568.504 291.572 572.295 293.928 577.008 295.695C581.793 297.536 587.61 298.456 594.457 298.456C604.691 298.456 613.122 295.953 619.748 290.946C626.448 286.013 629.798 277.73 629.798 266.097V236.265C629.798 235.602 629.26 235.064 628.596 235.064V235.064C628.119 235.064 627.688 235.347 627.488 235.78C625.431 240.228 622.447 244.443 618.533 248.427C614.41 252.624 609.109 256.047 602.63 258.698C596.151 261.348 588.42 262.674 579.437 262.674C566.7 262.674 555.104 259.729 544.649 253.838C534.267 247.875 525.984 238.782 519.799 226.56C513.688 214.264 510.633 198.729 510.633 179.954C510.633 160.737 513.762 144.687 520.02 131.802C526.279 118.917 534.598 109.272 544.98 102.866C555.435 96.4609 566.884 93.2582 579.327 93.2582C588.825 93.2582 596.776 94.878 603.182 98.1175C609.587 101.283 614.741 105.259 618.644 110.045C622.44 114.544 625.397 118.976 627.515 123.341C627.698 123.718 628.078 123.961 628.497 123.961V123.961C629.094 123.961 629.577 123.477 629.577 122.881V103.467C629.577 99.0487 633.159 95.467 637.577 95.467H668.293C672.712 95.467 676.293 99.0487 676.293 103.467V266.76C676.293 281.191 672.759 293.266 665.691 302.984C658.623 312.703 648.831 319.992 636.314 324.852C623.871 329.785 609.551 332.251 593.353 332.251ZM594.347 227.333C601.93 227.333 608.336 225.455 613.563 221.7C618.864 217.872 622.914 212.423 625.712 205.355C628.583 198.213 630.019 189.673 630.019 179.733C630.019 169.793 628.62 161.179 625.822 153.89C623.024 146.527 618.975 140.821 613.674 136.772C608.373 132.722 601.93 130.697 594.347 130.697C586.616 130.697 580.1 132.796 574.799 136.993C569.498 141.116 565.485 146.859 562.761 154.221C560.037 161.584 558.674 170.088 558.674 179.733C558.674 189.525 560.037 197.992 562.761 205.134C565.559 212.202 569.571 217.688 574.799 221.59C580.1 225.418 586.616 227.333 594.347 227.333Z" fill="white"/>
<path d="M790.378 268.417C773.223 268.417 758.387 264.772 745.871 257.483C733.428 250.12 723.82 239.886 717.046 226.781C710.272 213.601 706.885 198.324 706.885 180.948C706.885 163.425 710.272 148.11 717.046 135.005C723.82 121.825 733.428 111.591 745.871 104.302C758.387 96.9395 773.223 93.2582 790.378 93.2582C807.533 93.2582 822.332 96.9395 834.775 104.302C847.292 111.591 856.937 121.825 863.711 135.005C870.484 148.11 873.871 163.425 873.871 180.948C873.871 198.324 870.484 213.601 863.711 226.781C856.937 239.886 847.292 250.12 834.775 257.483C822.332 264.772 807.533 268.417 790.378 268.417ZM790.599 231.971C798.404 231.971 804.92 229.762 810.147 225.345C815.375 220.854 819.314 214.743 821.964 207.012C824.688 199.281 826.051 190.482 826.051 180.616C826.051 170.75 824.688 161.952 821.964 154.221C819.314 146.49 815.375 140.379 810.147 135.888C804.92 131.397 798.404 129.151 790.599 129.151C782.721 129.151 776.095 131.397 770.72 135.888C765.419 140.379 761.406 146.49 758.682 154.221C756.031 161.952 754.706 170.75 754.706 180.616C754.706 190.482 756.031 199.281 758.682 207.012C761.406 214.743 765.419 220.854 770.72 225.345C776.095 229.762 782.721 231.971 790.599 231.971Z" fill="white"/>
<path d="M42 265.103C37.5817 265.103 34 261.522 34 257.103V46.9215C34 42.5032 37.5817 38.9215 42 38.9215H124.561C141.201 38.9215 155.079 41.388 166.197 46.321C177.315 51.254 185.671 58.1013 191.267 66.8629C196.863 75.5509 199.661 85.5642 199.661 96.9027C199.661 105.738 197.893 113.506 194.359 120.206C190.825 126.832 185.966 132.28 179.781 136.551C173.925 140.573 167.257 143.479 159.777 145.269C159.206 145.406 158.798 145.914 158.798 146.502V146.502C158.798 147.175 159.328 147.726 160 147.77C168.163 148.305 175.824 150.713 182.984 154.994C190.568 159.486 196.715 165.781 201.428 173.88C206.14 181.905 208.496 191.476 208.496 202.594C208.496 214.595 205.514 225.308 199.55 234.732C193.66 244.083 184.935 251.482 173.376 256.931C161.816 262.379 147.569 265.103 130.635 265.103H42ZM81.8207 218.007C81.8207 222.426 85.4024 226.007 89.8207 226.007H120.806C134.133 226.007 143.851 223.467 149.962 218.387C156.073 213.233 159.129 206.386 159.129 197.845C159.129 191.587 157.62 186.065 154.601 181.279C151.582 176.493 147.275 172.738 141.679 170.014C136.157 167.29 129.568 165.928 121.911 165.928H89.8207C85.4024 165.928 81.8207 169.51 81.8207 173.928V218.007ZM81.8207 125.569C81.8207 129.987 85.4024 133.569 89.8207 133.569H117.272C123.825 133.569 129.641 132.428 134.722 130.145C139.875 127.789 143.925 124.476 146.87 120.206C149.889 115.935 151.398 110.818 151.398 104.854C151.398 96.6818 148.49 90.0922 142.673 85.0856C136.93 80.0789 128.758 77.5756 118.156 77.5756H89.8207C85.4024 77.5756 81.8207 81.1573 81.8207 85.5756V125.569Z" stroke="#0084FF" stroke-width="28" mask="url(#path-1-outside-1_5_51)"/>
<path d="M370.512 167.032V257.103C370.512 261.522 366.93 265.103 362.512 265.103H331.464C327.046 265.103 323.464 261.522 323.464 257.103V103.467C323.464 99.0487 327.046 95.467 331.464 95.467H360.303C364.721 95.467 368.303 99.0487 368.303 103.467V124.22C368.303 124.869 368.83 125.396 369.48 125.396V125.396C369.968 125.396 370.405 125.094 370.585 124.64C374.371 115.131 380.568 107.578 389.176 101.983C398.011 96.1664 408.724 93.2582 421.314 93.2582C433.095 93.2582 443.366 95.8351 452.127 100.989C460.889 106.143 467.699 113.506 472.559 123.077C477.418 132.575 479.848 143.913 479.848 157.093V257.103C479.848 261.522 476.266 265.103 471.848 265.103H440.8C436.382 265.103 432.8 261.522 432.8 257.103V165.486C432.874 155.105 430.223 147.006 424.848 141.189C419.474 135.299 412.074 132.354 402.65 132.354C396.318 132.354 390.722 133.716 385.863 136.44C381.077 139.165 377.322 143.14 374.598 148.368C371.947 153.522 370.585 159.743 370.512 167.032Z" stroke="#0084FF" stroke-width="28" mask="url(#path-1-outside-1_5_51)"/>
<path d="M593.353 332.251C578.112 332.251 565.043 330.153 554.146 325.956C543.323 321.833 534.709 316.2 528.303 309.059C523.943 304.197 520.623 298.926 518.344 293.246C516.607 288.917 519.773 284.451 524.396 283.83L553.11 279.967C556.765 279.475 560.199 281.624 562.315 284.645C563.273 286.015 564.379 287.342 565.632 288.627C568.504 291.572 572.295 293.928 577.008 295.695C581.793 297.536 587.61 298.456 594.457 298.456C604.691 298.456 613.122 295.953 619.748 290.946C626.448 286.013 629.798 277.73 629.798 266.097V236.265C629.798 235.602 629.26 235.064 628.596 235.064V235.064C628.119 235.064 627.688 235.347 627.488 235.78C625.431 240.228 622.447 244.443 618.533 248.427C614.41 252.624 609.109 256.047 602.63 258.698C596.151 261.348 588.42 262.674 579.437 262.674C566.7 262.674 555.104 259.729 544.649 253.838C534.267 247.875 525.984 238.782 519.799 226.56C513.688 214.264 510.633 198.729 510.633 179.954C510.633 160.737 513.762 144.687 520.02 131.802C526.279 118.917 534.598 109.272 544.98 102.866C555.435 96.4609 566.884 93.2582 579.327 93.2582C588.825 93.2582 596.776 94.878 603.182 98.1175C609.587 101.283 614.741 105.259 618.644 110.045C622.44 114.544 625.397 118.976 627.515 123.341C627.698 123.718 628.078 123.961 628.497 123.961V123.961C629.094 123.961 629.577 123.477 629.577 122.881V103.467C629.577 99.0487 633.159 95.467 637.577 95.467H668.293C672.712 95.467 676.293 99.0487 676.293 103.467V266.76C676.293 281.191 672.759 293.266 665.691 302.984C658.623 312.703 648.831 319.992 636.314 324.852C623.871 329.785 609.551 332.251 593.353 332.251ZM594.347 227.333C601.93 227.333 608.336 225.455 613.563 221.7C618.864 217.872 622.914 212.423 625.712 205.355C628.583 198.213 630.019 189.673 630.019 179.733C630.019 169.793 628.62 161.179 625.822 153.89C623.024 146.527 618.975 140.821 613.674 136.772C608.373 132.722 601.93 130.697 594.347 130.697C586.616 130.697 580.1 132.796 574.799 136.993C569.498 141.116 565.485 146.859 562.761 154.221C560.037 161.584 558.674 170.088 558.674 179.733C558.674 189.525 560.037 197.992 562.761 205.134C565.559 212.202 569.571 217.688 574.799 221.59C580.1 225.418 586.616 227.333 594.347 227.333Z" stroke="#0084FF" stroke-width="28" mask="url(#path-1-outside-1_5_51)"/>
<path d="M790.378 268.417C773.223 268.417 758.387 264.772 745.871 257.483C733.428 250.12 723.82 239.886 717.046 226.781C710.272 213.601 706.885 198.324 706.885 180.948C706.885 163.425 710.272 148.11 717.046 135.005C723.82 121.825 733.428 111.591 745.871 104.302C758.387 96.9395 773.223 93.2582 790.378 93.2582C807.533 93.2582 822.332 96.9395 834.775 104.302C847.292 111.591 856.937 121.825 863.711 135.005C870.484 148.11 873.871 163.425 873.871 180.948C873.871 198.324 870.484 213.601 863.711 226.781C856.937 239.886 847.292 250.12 834.775 257.483C822.332 264.772 807.533 268.417 790.378 268.417ZM790.599 231.971C798.404 231.971 804.92 229.762 810.147 225.345C815.375 220.854 819.314 214.743 821.964 207.012C824.688 199.281 826.051 190.482 826.051 180.616C826.051 170.75 824.688 161.952 821.964 154.221C819.314 146.49 815.375 140.379 810.147 135.888C804.92 131.397 798.404 129.151 790.599 129.151C782.721 129.151 776.095 131.397 770.72 135.888C765.419 140.379 761.406 146.49 758.682 154.221C756.031 161.952 754.706 170.75 754.706 180.616C754.706 190.482 756.031 199.281 758.682 207.012C761.406 214.743 765.419 220.854 770.72 225.345C776.095 229.762 782.721 231.971 790.599 231.971Z" stroke="#0084FF" stroke-width="28" mask="url(#path-1-outside-1_5_51)"/>
<path d="M1039.6 108.868C1035.49 108.868 1032.18 105.693 1030.91 101.782C1029.1 96.2009 1025.79 91.6418 1020.98 88.1047C1014.28 83.1717 1005.19 80.7052 993.704 80.7052C985.899 80.7052 979.309 81.8096 973.935 84.0184C968.56 86.1536 964.437 89.1355 961.565 92.9641C958.768 96.7927 957.369 101.137 957.369 105.996C957.221 110.046 958.068 113.58 959.909 116.598C961.823 119.617 964.437 122.231 967.75 124.44C971.063 126.575 974.892 128.452 979.236 130.072C983.58 131.618 988.218 132.944 993.151 134.048L1013.47 138.907C1023.34 141.116 1032.39 144.061 1040.64 147.743C1048.89 151.424 1056.03 155.952 1062.07 161.327C1068.1 166.701 1072.78 173.033 1076.09 180.322C1079.48 187.611 1081.21 195.968 1081.28 205.392C1081.21 219.234 1077.68 231.235 1070.68 241.396C1063.76 251.483 1053.75 259.324 1040.64 264.92C1027.61 270.442 1011.89 273.203 993.483 273.203C975.223 273.203 959.32 270.405 945.772 264.809C932.299 259.214 921.77 250.931 914.187 239.96C907.969 230.816 904.199 219.881 902.877 207.154C902.413 202.689 906.063 198.987 910.552 198.987H941.169C945.377 198.987 948.758 202.282 949.764 206.368C950.849 210.778 952.648 214.65 955.16 217.983C959.062 222.989 964.253 226.781 970.732 229.358C977.285 231.861 984.684 233.113 992.93 233.113C1001.03 233.113 1008.06 231.935 1014.02 229.579C1020.06 227.223 1024.74 223.946 1028.05 219.75C1031.36 215.553 1033.02 210.73 1033.02 205.282C1033.02 200.202 1031.51 195.931 1028.49 192.471C1025.55 189.01 1021.2 186.065 1015.46 183.636C1009.79 181.206 1002.83 178.997 994.587 177.009L969.959 170.825C950.89 166.186 935.833 158.934 924.789 149.068C913.745 139.202 908.26 125.912 908.333 109.199C908.26 95.5042 911.904 83.5399 919.267 73.3057C926.703 63.0716 936.9 55.0831 949.859 49.3402C962.817 43.5973 977.542 40.7258 994.035 40.7258C1010.82 40.7258 1025.47 43.5973 1037.99 49.3402C1050.58 55.0831 1060.37 63.0716 1067.37 73.3057C1072.92 81.4346 1076.34 90.5854 1077.62 100.758C1078.18 105.193 1074.53 108.868 1070.06 108.868H1039.6Z" fill="#0084FF"/>
<path d="M1194.79 100.364C1199.21 100.364 1202.79 103.945 1202.79 108.364V127.705C1202.79 132.123 1199.21 135.705 1194.79 135.705H1108.64C1104.22 135.705 1100.64 132.123 1100.64 127.705V108.364C1100.64 103.945 1104.22 100.364 1108.64 100.364H1194.79ZM1123.83 67.7216C1123.83 63.3033 1127.41 59.7216 1131.83 59.7216H1162.88C1167.3 59.7216 1170.88 63.3033 1170.88 67.7216V217.872C1170.88 222.216 1171.54 225.603 1172.87 228.033C1174.19 230.389 1176.03 232.045 1178.39 233.002C1180.82 233.96 1183.61 234.438 1186.78 234.438C1188.99 234.438 1191.2 234.254 1193.41 233.886C1196.23 233.322 1198.96 235.141 1199.56 237.957L1204.38 260.782C1205.24 264.818 1202.87 268.819 1198.86 269.772C1197.94 269.989 1196.97 270.212 1195.95 270.442C1191.68 271.473 1186.49 272.098 1180.38 272.319C1169.04 272.761 1159.1 271.252 1150.56 267.791C1142.09 264.331 1135.5 258.956 1130.79 251.667C1126.08 244.378 1123.76 235.174 1123.83 224.057V67.7216Z" fill="#0084FF"/>
<path d="M1241.44 270C1237.02 270 1233.44 266.418 1233.44 262V108.364C1233.44 103.945 1237.02 100.364 1241.44 100.364H1271.05C1275.47 100.364 1279.05 103.945 1279.05 108.364V128.951C1279.05 129.509 1279.51 129.962 1280.06 129.962C1280.51 129.962 1280.91 129.665 1281.04 129.236C1284.15 119.067 1289.27 111.357 1296.39 106.107C1303.68 100.658 1312.08 97.9339 1321.57 97.9339C1323.93 97.9339 1326.47 98.0812 1329.19 98.3757C1329.54 98.4135 1329.89 98.4532 1330.23 98.4946C1333.87 98.9404 1336.37 102.166 1336.37 105.837V131.993C1336.37 136.65 1331.82 140.18 1327.21 139.57C1323.3 139.055 1319.73 138.797 1316.49 138.797C1309.57 138.797 1303.39 140.306 1297.94 143.325C1292.56 146.27 1288.29 150.393 1285.13 155.694C1282.04 160.995 1280.49 167.106 1280.49 174.027V262C1280.49 266.418 1276.91 270 1272.49 270H1241.44Z" fill="#0084FF"/>
<path d="M1430.11 273.313C1412.66 273.313 1397.64 269.779 1385.05 262.711C1372.53 255.569 1362.89 245.482 1356.11 232.45C1349.34 219.345 1345.95 203.846 1345.95 185.955C1345.95 168.505 1349.34 153.191 1356.11 140.012C1362.89 126.832 1372.42 116.562 1384.72 109.199C1397.09 101.836 1411.59 98.1548 1428.23 98.1548C1439.42 98.1548 1449.84 99.9587 1459.49 103.566C1469.2 107.1 1477.67 112.438 1484.89 119.58C1492.18 126.722 1497.85 135.705 1501.89 146.528C1505.94 157.277 1507.97 169.867 1507.97 184.298V189.22C1507.97 193.638 1504.39 197.22 1499.97 197.22H1372.73C1368.31 197.22 1364.73 193.638 1364.73 189.22V176.064C1364.73 171.645 1368.31 168.064 1372.73 168.064H1455.68C1460.1 168.064 1463.79 164.446 1462.94 160.111C1462.22 156.493 1461 153.143 1459.26 150.062C1456.32 144.834 1452.23 140.748 1447.01 137.803C1441.85 134.784 1435.85 133.275 1429 133.275C1421.86 133.275 1415.53 134.931 1410.01 138.245C1404.56 141.484 1400.29 145.865 1397.2 151.387C1394.11 156.835 1392.52 162.91 1392.45 169.61V197.33C1392.45 205.724 1393.99 212.976 1397.09 219.087C1400.25 225.198 1404.71 229.91 1410.45 233.223C1416.19 236.537 1423 238.193 1430.88 238.193C1436.11 238.193 1440.89 237.457 1445.24 235.984C1449.58 234.512 1453.3 232.303 1456.39 229.358C1458.11 227.724 1459.6 225.885 1460.86 223.843C1462.71 220.851 1465.86 218.693 1469.37 218.925L1497.77 220.799C1502.63 221.119 1506.12 225.7 1504.43 230.269C1501.91 237.106 1498.23 243.281 1493.39 248.795C1486.62 256.526 1477.86 262.564 1467.11 266.908C1456.43 271.178 1444.1 273.313 1430.11 273.313Z" fill="#0084FF"/>
<path d="M1587.04 273.203C1576.22 273.203 1566.58 271.325 1558.11 267.57C1549.64 263.742 1542.94 258.109 1538.01 250.673C1533.15 243.163 1530.72 233.812 1530.72 222.621C1530.72 213.197 1532.45 205.282 1535.91 198.876C1539.37 192.471 1544.08 187.317 1550.05 183.415C1556.01 179.513 1562.78 176.567 1570.37 174.58C1578.03 172.592 1586.05 171.193 1594.44 170.383C1604.31 169.352 1612.26 168.395 1618.3 167.511C1624.34 166.554 1628.72 165.155 1631.44 163.315C1634.17 161.474 1635.53 158.75 1635.53 155.142V154.479C1635.53 147.485 1633.32 142.073 1628.9 138.245C1624.56 134.416 1618.37 132.502 1610.35 132.502C1601.88 132.502 1595.14 134.379 1590.14 138.134C1587.04 140.412 1584.59 143.057 1582.79 146.068C1580.83 149.332 1577.47 151.828 1573.68 151.521L1545.77 149.253C1540.95 148.862 1537.54 144.298 1539.19 139.761C1541.64 133.075 1545.15 127.084 1549.72 121.789C1556.19 114.205 1564.55 108.389 1574.79 104.339C1585.09 100.216 1597.02 98.1548 1610.57 98.1548C1619.99 98.1548 1629.01 99.2592 1637.63 101.468C1646.31 103.677 1654.01 107.1 1660.71 111.739C1667.48 116.377 1672.82 122.341 1676.72 129.63C1680.62 136.846 1682.58 145.497 1682.58 155.584V262C1682.58 266.418 1678.99 270 1674.58 270H1645.96C1641.54 270 1637.96 266.418 1637.96 262V247.299C1637.96 246.845 1637.59 246.476 1637.13 246.476C1636.83 246.476 1636.54 246.649 1636.4 246.922C1633.7 252.04 1630.13 256.566 1625.7 260.502C1621.13 264.478 1615.65 267.607 1609.24 269.89C1602.84 272.098 1595.44 273.203 1587.04 273.203ZM1600.52 240.733C1607.44 240.733 1613.55 239.371 1618.85 236.647C1624.15 233.849 1628.31 230.094 1631.33 225.382C1634.35 220.67 1635.86 215.332 1635.86 209.368V198.013C1635.86 195.151 1632.51 193.159 1629.78 194.017C1627.28 194.753 1624.45 195.453 1621.28 196.115C1618.11 196.704 1614.95 197.257 1611.78 197.772C1608.62 198.214 1605.75 198.619 1603.17 198.987C1597.65 199.797 1592.82 201.085 1588.7 202.852C1584.58 204.619 1581.38 207.012 1579.09 210.031C1576.81 212.976 1575.67 216.657 1575.67 221.075C1575.67 227.48 1577.99 232.377 1582.63 235.763C1587.34 239.077 1593.3 240.733 1600.52 240.733Z" fill="#0084FF"/>
<path d="M1775.77 205.131C1770.9 210.693 1761.73 207.238 1761.75 199.845L1761.81 169.423C1761.81 166.841 1763.91 164.75 1766.49 164.75C1767.87 164.75 1769.18 164.142 1770.07 163.088L1820.6 103.204C1822.12 101.403 1824.36 100.364 1826.72 100.364H1859.62C1866.46 100.364 1870.14 108.376 1865.7 113.567L1806.4 182.827C1804.88 184.602 1802.66 185.624 1800.32 185.624H1796.48C1794.17 185.624 1791.98 186.618 1790.46 188.353L1775.77 205.131ZM1727.08 270C1722.66 270 1719.08 266.418 1719.08 262V51.8182C1719.08 47.3999 1722.66 43.8182 1727.08 43.8182H1758.12C1762.54 43.8182 1766.12 47.3999 1766.12 51.8182V262C1766.12 266.418 1762.54 270 1758.12 270H1727.08ZM1829.35 270C1826.69 270 1824.21 268.681 1822.72 266.479L1778.77 201.424C1776.67 198.321 1777.01 194.179 1779.58 191.455L1799.75 170.078C1803.24 166.371 1809.27 166.836 1812.16 171.035L1871.59 257.467C1875.24 262.775 1871.44 270 1865 270H1829.35Z" fill="#0084FF"/>
<path d="M2039.54 140.333C2040.77 144.803 2037.3 148.979 2032.67 149.263L2005.13 150.958C2001.13 151.204 1997.71 148.352 1995.76 144.864C1995.09 143.675 1994.31 142.536 1993.41 141.447C1990.98 138.429 1987.78 136.036 1983.8 134.269C1979.9 132.428 1975.22 131.508 1969.78 131.508C1962.49 131.508 1956.34 133.054 1951.33 136.146C1946.33 139.165 1943.82 143.214 1943.82 148.295C1943.82 152.344 1945.44 155.768 1948.68 158.566C1951.92 161.364 1957.48 163.609 1965.36 165.303L1996.06 171.487C2012.55 174.874 2024.85 180.322 2032.95 187.832C2041.05 195.342 2045.1 205.208 2045.1 217.43C2045.1 228.548 2041.82 238.304 2035.27 246.697C2028.79 255.091 2019.88 261.643 2008.54 266.355C1997.27 270.994 1984.28 273.313 1969.55 273.313C1947.1 273.313 1929.21 268.638 1915.88 259.287C1905.05 251.585 1897.88 241.62 1894.38 229.393C1893.08 224.88 1896.61 220.642 1901.3 220.396L1931.97 218.786C1935.93 218.578 1939.29 221.382 1941.02 224.945C1942.83 228.693 1945.5 231.746 1949.01 234.107C1954.39 237.641 1961.27 239.408 1969.66 239.408C1977.91 239.408 1984.54 237.825 1989.54 234.659C1994.62 231.419 1997.2 227.26 1997.27 222.179C1997.2 217.909 1995.4 214.412 1991.86 211.687C1988.33 208.89 1982.88 206.754 1975.52 205.282L1946.14 199.429C1929.57 196.115 1917.24 190.372 1909.14 182.2C1901.12 174.027 1897.11 163.609 1897.11 150.945C1897.11 140.049 1900.05 130.661 1905.94 122.783C1911.9 114.905 1920.26 108.831 1931.01 104.56C1941.83 100.29 1954.5 98.1548 1969 98.1548C1990.43 98.1548 2007.29 102.683 2019.58 111.739C2029.64 119.104 2036.29 128.635 2039.54 140.333Z" fill="#0084FF"/>
<rect x="234" y="125" width="62" height="148" rx="15" fill="white" stroke="#0084FF" stroke-width="14"/>
<circle cx="265.5" cy="77.5" r="25.5" fill="#0084FF" stroke="#0084FF" stroke-width="14"/>
</svg>
